<?xml version="1.0" encoding="UTF-8" standalone="no"?>
<!-- Generator: Adobe Illustrator 13.0.0, SVG Export Plug-In . SVG Version: 6.00 Build 14948)  -->

<svg
   version="1.1"
   id="Layer_1"
   x="0px"
   y="0px"
   width="400px"
   height="122.078px"
   viewBox="0 0 400 122.078"
   enable-background="new 0 0 400 122.078"
   xml:space="preserve"
   sodipodi:docname="insulator.svg"
   inkscape:version="1.1 (c4e8f9ed74, 2021-05-24)"
   xmlns:inkscape="http://www.inkscape.org/namespaces/inkscape"
   xmlns:sodipodi="http://sodipodi.sourceforge.net/DTD/sodipodi-0.dtd"
   xmlns="http://www.w3.org/2000/svg"
   xmlns:svg="http://www.w3.org/2000/svg"><defs
   id="defs71" /><sodipodi:namedview
   id="namedview69"
   pagecolor="#ffffff"
   bordercolor="#111111"
   borderopacity="1"
   inkscape:pageshadow="0"
   inkscape:pageopacity="0"
   inkscape:pagecheckerboard="1"
   showgrid="false"
   inkscape:zoom="1.54625"
   inkscape:cx="148.10024"
   inkscape:cy="-7.4373484"
   inkscape:window-width="1920"
   inkscape:window-height="1022"
   inkscape:window-x="768"
   inkscape:window-y="180"
   inkscape:window-maximized="1"
   inkscape:current-layer="Layer_1" />
<path
   fill="#cccccc"
   stroke="#231f20"
   d="m 396.87642,76.047997 c 0,3.487055 -3.25409,6.315798 -7.2655,6.315798 H 9.4292012 c -4.0136887,0 -7.2666356,-2.828743 -7.2666356,-6.315798 v 0 c 0,-3.489049 3.2529469,-6.317792 7.2666356,-6.317792 H 389.61092 c 4.01141,0 7.2655,2.828743 7.2655,6.317792 z"
   id="path2"
   style="stroke-width:1.06981" />
<rect
   x="72.682"
   y="69.421"
   fill="#E44044"
   stroke="#231F20"
   stroke-width="1.0147"
   width="34"
   height="12.959"
   id="rect4" />
<rect
   x="119.182"
   y="69.421"
   fill="#BED63A"
   stroke="#231F20"
   stroke-width="1.0147"
   width="34"
   height="12.959"
   id="rect6" />
<rect
   x="302.682"
   y="69.421"
   fill="#E44044"
   stroke="#231F20"
   stroke-width="1.0147"
   width="34"
   height="12.959"
   id="rect8" />
<rect
   x="239.99368"
   y="69.597717"
   fill="#57b6dd"
   stroke="#231f20"
   stroke-width="1.0147"
   width="34"
   height="12.959"
   id="rect10" />
<rect
   x="184.182"
   y="69.421"
   fill="#57B6DD"
   stroke="#231F20"
   stroke-width="1.0147"
   width="34"
   height="12.959"
   id="rect12" /><rect
   x="16.430408"
   y="69.624008"
   fill="#57b6dd"
   stroke="#231f20"
   stroke-width="1.0147"
   width="34"
   height="12.959"
   id="rect12-3" />
<g
   id="g20"
   transform="translate(-0.00112118,0.77091557)">
	<g
   id="g18">
		<path
   fill="none"
   stroke="#231f20"
   stroke-width="1.0147"
   d="m 139.015,61.546 c 0,0 64.5,-59 64,-6"
   id="path14" />
		<polygon
   fill="#231f20"
   points="202.93,62.829 208.073,54.114 197.954,54.018 "
   id="polygon16" />
	</g>
</g>
<g
   id="g28"
   transform="translate(-0.00112118,0.77091557)">
	<g
   id="g26">
		<path
   fill="none"
   stroke="#231f20"
   stroke-width="1.0147"
   d="m 139.015,61.546 c 0,0 -105.5,-59 -106,-6"
   id="path22" />
		<polygon
   fill="#231f20"
   points="32.931,62.829 38.072,54.114 27.954,54.018 "
   id="polygon24" />
	</g>
</g>
<g
   id="g36"
   transform="translate(-0.00112118,0.77091557)">
	<g
   id="g34">
		<path
   fill="none"
   stroke="#231f20"
   stroke-width="1.0147"
   d="m 139.015,61.546 c 0,0 118.5,-59 118,-6"
   id="path30" />
		<polygon
   fill="#231f20"
   points="256.93,62.829 262.073,54.114 251.955,54.018 "
   id="polygon32" />
	</g>
</g>
<g
   id="g44">
	<g
   id="g42"
   transform="matrix(0.93705602,0,0,1.0271155,8.7490362,-0.89793499)">
		<path
   fill="none"
   stroke="#231f20"
   stroke-width="1.0147"
   d="m 139.015,61.546 c 0,0 244.501,-59 244.001,-6"
   id="path38" />
		<polygon
   fill="#231f20"
   points="388.073,54.114 377.956,54.018 382.93,62.829 "
   id="polygon40" />
	</g>
</g>
<line
   fill="none"
   stroke="#EC1C24"
   stroke-width="2"
   x1="315.016"
   y1="25.546"
   x2="331.266"
   y2="41.796"
   id="line46" />
<line
   fill="none"
   stroke="#EC1C24"
   stroke-width="2"
   x1="331.266"
   y1="25.546"
   x2="315.016"
   y2="41.796"
   id="line48" />


<line
   fill="none"
   stroke="#EC1C24"
   stroke-width="2"
   x1="77.515"
   y1="30.546"
   x2="93.765"
   y2="46.796"
   id="line54" />
<line
   fill="none"
   stroke="#EC1C24"
   stroke-width="2"
   x1="93.765"
   y1="30.546"
   x2="77.515"
   y2="46.796"
   id="line56" />
<text
   transform="matrix(1 0 0 1 56.5156 102.0469)"
   fill="#231F20"
   font-family="'MyriadPro-Regular'"
   font-size="12"
   id="text58">Insulator</text>
<text
   transform="matrix(1 0 0 1 298.0151 102.0469)"
   fill="#231F20"
   font-family="'MyriadPro-Regular'"
   font-size="12"
   id="text60">Insulator</text>
<text
   transform="matrix(1 0 0 1 113.5156 102.0469)"
   fill="#231F20"
   font-family="'MyriadPro-Regular'"
   font-size="12"
   id="text62">Enhancer</text>
<text
   transform="matrix(1 0 0 1 213.0161 102.0469)"
   fill="#231F20"
   font-family="'MyriadPro-Regular'"
   font-size="12"
   id="text64">Genes</text>
<text
   transform="matrix(1 0 0 1 170.3247 20.8867)"
   fill="#231F20"
   font-family="'MyriadPro-Regular'"
   font-size="12"
   id="text66">looping of DNA</text>
<rect
   x="348.48624"
   y="69.549133"
   fill="#57b6dd"
   stroke="#231f20"
   stroke-width="1.0147"
   width="34"
   height="12.959"
   id="rect12-6" /></svg>
