<?xml version="1.0" encoding="utf-8"?>
<!-- Generator: Adobe Illustrator 13.0.0, SVG Export Plug-In . SVG Version: 6.00 Build 14948)  -->
<!DOCTYPE svg PUBLIC "-//W3C//DTD SVG 1.1//EN" "http://www.w3.org/Graphics/SVG/1.1/DTD/svg11.dtd">
<svg version="1.1" id="Layer_1" xmlns="http://www.w3.org/2000/svg" xmlns:xlink="http://www.w3.org/1999/xlink" x="0px" y="0px"
	 width="400px" height="122.078px" viewBox="0 0 400 122.078" enable-background="new 0 0 400 122.078" xml:space="preserve">
<path fill="#CCCCCC" stroke="#231F20" d="M370.682,76.048c0,3.496-2.836,6.332-6.332,6.332H33.015c-3.498,0-6.333-2.836-6.333-6.332
	l0,0c0-3.498,2.835-6.334,6.333-6.334H364.35C367.846,69.714,370.682,72.55,370.682,76.048L370.682,76.048z"/>
<rect x="72.682" y="69.421" fill="#E44044" stroke="#231F20" stroke-width="1.0147" width="34" height="12.959"/>
<rect x="119.182" y="69.421" fill="#BED63A" stroke="#231F20" stroke-width="1.0147" width="34" height="12.959"/>
<rect x="302.682" y="69.421" fill="#E44044" stroke="#231F20" stroke-width="1.0147" width="34" height="12.959"/>
<rect x="240.182" y="69.421" fill="#57B6DD" stroke="#231F20" stroke-width="1.0147" width="34" height="12.959"/>
<rect x="184.182" y="69.421" fill="#57B6DD" stroke="#231F20" stroke-width="1.0147" width="34" height="12.959"/>
<g>
	<g>
		<path fill="none" stroke="#231F20" stroke-width="1.0147" d="M139.015,61.546c0,0,64.5-59,64-6"/>
		<polygon fill="#231F20" points="197.954,54.018 202.93,62.829 208.073,54.114 		"/>
	</g>
</g>
<g>
	<g>
		<path fill="none" stroke="#231F20" stroke-width="1.0147" d="M139.015,61.546c0,0-105.5-59-106-6"/>
		<polygon fill="#231F20" points="27.954,54.018 32.931,62.829 38.072,54.114 		"/>
	</g>
</g>
<g>
	<g>
		<path fill="none" stroke="#231F20" stroke-width="1.0147" d="M139.015,61.546c0,0,118.5-59,118-6"/>
		<polygon fill="#231F20" points="251.955,54.018 256.93,62.829 262.073,54.114 		"/>
	</g>
</g>
<g>
	<g>
		<path fill="none" stroke="#231F20" stroke-width="1.0147" d="M139.015,61.546c0,0,244.501-59,244.001-6"/>
		<polygon fill="#231F20" points="377.956,54.018 382.93,62.829 388.073,54.114 		"/>
	</g>
</g>
<line fill="none" stroke="#EC1C24" stroke-width="2" x1="315.016" y1="25.546" x2="331.266" y2="41.796"/>
<line fill="none" stroke="#EC1C24" stroke-width="2" x1="331.266" y1="25.546" x2="315.016" y2="41.796"/>
<rect x="339.016" y="20.546" fill="#FFFFFF" width="67.5" height="43.5"/>
<rect x="-15.985" y="20.546" fill="#FFFFFF" width="67.5" height="43.5"/>
<line fill="none" stroke="#EC1C24" stroke-width="2" x1="77.515" y1="30.546" x2="93.765" y2="46.796"/>
<line fill="none" stroke="#EC1C24" stroke-width="2" x1="93.765" y1="30.546" x2="77.515" y2="46.796"/>
<text transform="matrix(1 0 0 1 56.5156 102.0469)" fill="#231F20" font-family="'MyriadPro-Regular'" font-size="12">Insulator</text>
<text transform="matrix(1 0 0 1 298.0151 102.0469)" fill="#231F20" font-family="'MyriadPro-Regular'" font-size="12">Insulator</text>
<text transform="matrix(1 0 0 1 113.5156 102.0469)" fill="#231F20" font-family="'MyriadPro-Regular'" font-size="12">Enhancer</text>
<text transform="matrix(1 0 0 1 213.0161 102.0469)" fill="#231F20" font-family="'MyriadPro-Regular'" font-size="12">Genes</text>
<text transform="matrix(1 0 0 1 170.3247 20.8867)" fill="#231F20" font-family="'MyriadPro-Regular'" font-size="12">looping of DNA</text>
</svg>
